<svg width="21" height="21" viewBox="0 0 21 21" fill="none" xmlns="http://www.w3.org/2000/svg">
<path d="M10.5 19.25C15.3325 19.25 19.25 15.3325 19.25 10.5C19.25 5.66751 15.3325 1.75 10.5 1.75C5.66751 1.75 1.75 5.66751 1.75 10.5C1.75 15.3325 5.66751 19.25 10.5 19.25Z" stroke="#656262" stroke-width="2" stroke-linecap="round" stroke-linejoin="round"/>
<path d="M10.5 14.875H10.5075" stroke="#656262" stroke-width="2" stroke-linecap="round" stroke-linejoin="round"/>
<path d="M7.95312 7.87501C8.15884 7.29022 8.56488 6.7971 9.09934 6.483C9.63379 6.1689 10.2622 6.05408 10.8732 6.15888C11.4841 6.26369 12.0383 6.58134 12.4376 7.0556C12.8368 7.52985 13.0553 8.13009 13.0544 8.75001C13.0544 10.5 10.4294 11.375 10.4294 11.375" stroke="#656262" stroke-width="2" stroke-linecap="round" stroke-linejoin="round"/>
</svg>
