<svg width="21" height="22" viewBox="0 0 21 22" fill="none" xmlns="http://www.w3.org/2000/svg">
<path d="M7.875 19.75H13.125C17.5 19.75 19.25 18 19.25 13.625V8.375C19.25 4 17.5 2.25 13.125 2.25H7.875C3.5 2.25 1.75 4 1.75 8.375V13.625C1.75 18 3.5 19.75 7.875 19.75Z" stroke="#656262" stroke-width="1.5" stroke-linecap="round" stroke-linejoin="round"/>
<path d="M10.5 11.7948V11.5735C10.5 10.8566 10.9428 10.4771 11.3856 10.1713C11.8178 9.87615 12.25 9.49664 12.25 8.80085C12.25 7.83095 11.4699 7.05078 10.5 7.05078C9.5301 7.05078 8.75 7.83095 8.75 8.80085" stroke="#656262" stroke-width="1.80726" stroke-linecap="round" stroke-linejoin="round"/>
<path d="M10.495 14.3147H10.5045" stroke="#656262" stroke-width="1.80726" stroke-linecap="round" stroke-linejoin="round"/>
</svg>
