<svg width="41" height="40" viewBox="0 0 41 40" fill="none" xmlns="http://www.w3.org/2000/svg">
<rect x="0.5" width="40" height="40" rx="4" fill="#F4F9FF"/>
<path d="M20.5 28H29.5" stroke="#1769CA" stroke-width="2" stroke-linecap="round" stroke-linejoin="round"/>
<path d="M25 11.5002C25.3978 11.1024 25.9374 10.8789 26.5 10.8789C26.7786 10.8789 27.0544 10.9338 27.3118 11.0404C27.5692 11.147 27.803 11.3032 28 11.5002C28.197 11.6972 28.3532 11.9311 28.4598 12.1884C28.5665 12.4458 28.6213 12.7217 28.6213 13.0002C28.6213 13.2788 28.5665 13.5547 28.4598 13.812C28.3532 14.0694 28.197 14.3032 28 14.5002L15.5 27.0002L11.5 28.0002L12.5 24.0002L25 11.5002Z" stroke="#1769CA" stroke-width="2" stroke-linecap="round" stroke-linejoin="round"/>
</svg>
