<svg width="21" height="22" viewBox="0 0 21 22" fill="none" xmlns="http://www.w3.org/2000/svg">
<g clip-path="url(#clip0_46_5268)">
<path d="M10.5 13.625C11.9497 13.625 13.125 12.4497 13.125 11C13.125 9.55025 11.9497 8.375 10.5 8.375C9.05025 8.375 7.875 9.55025 7.875 11C7.875 12.4497 9.05025 13.625 10.5 13.625Z" stroke="#656262" stroke-width="1.5" stroke-linecap="round" stroke-linejoin="round"/>
<path d="M16.975 13.625C16.8585 13.8889 16.8238 14.1817 16.8752 14.4655C16.9267 14.7494 17.062 15.0113 17.2637 15.2175L17.3163 15.27C17.479 15.4325 17.608 15.6255 17.6961 15.838C17.7842 16.0504 17.8295 16.2781 17.8295 16.5081C17.8295 16.7381 17.7842 16.9658 17.6961 17.1783C17.608 17.3907 17.479 17.5837 17.3163 17.7462C17.1537 17.909 16.9607 18.038 16.7483 18.1261C16.5358 18.2142 16.3081 18.2595 16.0781 18.2595C15.8481 18.2595 15.6204 18.2142 15.408 18.1261C15.1955 18.038 15.0025 17.909 14.84 17.7462L14.7875 17.6937C14.5813 17.492 14.3194 17.3567 14.0355 17.3052C13.7517 17.2538 13.4589 17.2885 13.195 17.405C12.9362 17.5159 12.7155 17.7001 12.56 17.9348C12.4046 18.1696 12.3211 18.4447 12.32 18.7262V18.875C12.32 19.3391 12.1356 19.7842 11.8074 20.1124C11.4792 20.4406 11.0341 20.625 10.57 20.625C10.1059 20.625 9.66075 20.4406 9.33256 20.1124C9.00437 19.7842 8.82 19.3391 8.82 18.875V18.7962C8.81323 18.5066 8.71948 18.2257 8.55095 17.9901C8.38241 17.7545 8.14689 17.575 7.875 17.475C7.61109 17.3585 7.31833 17.3238 7.03449 17.3752C6.75064 17.4267 6.48872 17.562 6.2825 17.7637L6.23 17.8163C6.06747 17.979 5.87447 18.108 5.66202 18.1961C5.44957 18.2842 5.22185 18.3295 4.99187 18.3295C4.7619 18.3295 4.53418 18.2842 4.32173 18.1961C4.10928 18.108 3.91628 17.979 3.75375 17.8163C3.59104 17.6537 3.46196 17.4607 3.3739 17.2483C3.28583 17.0358 3.2405 16.8081 3.2405 16.5781C3.2405 16.3481 3.28583 16.1204 3.3739 15.908C3.46196 15.6955 3.59104 15.5025 3.75375 15.34L3.80625 15.2875C4.00797 15.0813 4.14329 14.8194 4.19475 14.5355C4.24622 14.2517 4.21148 13.9589 4.095 13.695C3.98408 13.4362 3.79991 13.2155 3.56516 13.06C3.3304 12.9046 3.05531 12.8211 2.77375 12.82H2.625C2.16087 12.82 1.71575 12.6356 1.38756 12.3074C1.05937 11.9792 0.875 11.5341 0.875 11.07C0.875 10.6059 1.05937 10.1608 1.38756 9.83256C1.71575 9.50437 2.16087 9.32 2.625 9.32H2.70375C2.99337 9.31323 3.27425 9.21948 3.50989 9.05095C3.74552 8.88241 3.925 8.64689 4.025 8.375C4.14148 8.11109 4.17622 7.81833 4.12475 7.53449C4.07329 7.25064 3.93797 6.98872 3.73625 6.7825L3.68375 6.73C3.52104 6.56747 3.39196 6.37447 3.3039 6.16202C3.21583 5.94957 3.1705 5.72185 3.1705 5.49187C3.1705 5.2619 3.21583 5.03418 3.3039 4.82173C3.39196 4.60928 3.52104 4.41628 3.68375 4.25375C3.84628 4.09104 4.03928 3.96196 4.25173 3.8739C4.46418 3.78583 4.6919 3.7405 4.92188 3.7405C5.15185 3.7405 5.37957 3.78583 5.59202 3.8739C5.80447 3.96196 5.99747 4.09104 6.16 4.25375L6.2125 4.30625C6.41872 4.50797 6.68064 4.64329 6.96448 4.69475C7.24833 4.74622 7.54109 4.71148 7.805 4.595H7.875C8.1338 4.48408 8.35451 4.29991 8.50998 4.06516C8.66545 3.8304 8.74888 3.55531 8.75 3.27375V3.125C8.75 2.66087 8.93437 2.21575 9.26256 1.88756C9.59075 1.55937 10.0359 1.375 10.5 1.375C10.9641 1.375 11.4092 1.55937 11.7374 1.88756C12.0656 2.21575 12.25 2.66087 12.25 3.125V3.20375C12.2511 3.48531 12.3346 3.7604 12.49 3.99516C12.6455 4.22991 12.8662 4.41408 13.125 4.525C13.3889 4.64148 13.6817 4.67622 13.9655 4.62475C14.2494 4.57329 14.5113 4.43797 14.7175 4.23625L14.77 4.18375C14.9325 4.02104 15.1255 3.89196 15.338 3.8039C15.5504 3.71583 15.7781 3.6705 16.0081 3.6705C16.2381 3.6705 16.4658 3.71583 16.6783 3.8039C16.8907 3.89196 17.0837 4.02104 17.2462 4.18375C17.409 4.34628 17.538 4.53928 17.6261 4.75173C17.7142 4.96418 17.7595 5.1919 17.7595 5.42188C17.7595 5.65185 17.7142 5.87957 17.6261 6.09202C17.538 6.30447 17.409 6.49747 17.2462 6.66L17.1937 6.7125C16.992 6.91872 16.8567 7.18064 16.8052 7.46448C16.7538 7.74833 16.7885 8.04109 16.905 8.305V8.375C17.0159 8.6338 17.2001 8.85451 17.4348 9.00998C17.6696 9.16545 17.9447 9.24888 18.2262 9.25H18.375C18.8391 9.25 19.2842 9.43437 19.6124 9.76256C19.9406 10.0908 20.125 10.5359 20.125 11C20.125 11.4641 19.9406 11.9092 19.6124 12.2374C19.2842 12.5656 18.8391 12.75 18.375 12.75H18.2962C18.0147 12.7511 17.7396 12.8346 17.5048 12.99C17.2701 13.1455 17.0859 13.3662 16.975 13.625V13.625Z" stroke="#656262" stroke-width="1.5" stroke-linecap="round" stroke-linejoin="round"/>
</g>
<defs>
<clipPath id="clip0_46_5268">
<rect width="21" height="21" fill="white" transform="translate(0 0.5)"/>
</clipPath>
</defs>
</svg>
